<?xml version="1.0" encoding="utf-8"?>
<!-- Generator: Adobe Illustrator 19.2.1, SVG Export Plug-In . SVG Version: 6.00 Build 0)  -->
<svg version="1.1" id="Capa_1" xmlns="http://www.w3.org/2000/svg" xmlns:xlink="http://www.w3.org/1999/xlink" x="0px" y="0px"
	 viewBox="0 0 155 46" style="enable-background:new 0 0 155 46;" xml:space="preserve">
<style type="text/css">
	.st0{fill:#333333;}
</style>
<g>
	<path class="st0" d="M149.1,30.3c-2.6-1.2-5.1-2-5.1-4c0-1.2,1.1-2.2,2.3-2.2c0.7,0,1.4,0.3,1.9,0.8c0.1,0.1,0.1,0.1,0.2,0.2
		c0.3,0.3,0.8,0.4,1.2,0.4c1.1,0,2-0.9,2-2c0-0.6-0.3-1.1-0.7-1.5c0,0,0,0,0,0c0,0,0,0,0,0c0,0,0,0-0.1,0c-1.2-1-2.7-1.6-4.3-1.6
		c-3.6,0-6.5,2.8-6.5,6.4c0,3,1.8,4.2,4.2,5.6l4.1,2.2c1,0.7,1.6,1.2,1.6,2.4c0,1.9-1.6,3.1-3.3,3.1c-1.5,0-2.4-0.6-3.2-1.6
		c0,0,0,0,0,0c0,0,0,0,0,0c0,0,0,0,0,0c-0.4-0.4-0.9-0.7-1.5-0.7c-1.1,0-2,0.9-2,2c0,0.4,0.1,0.8,0.4,1.1c0,0,0.1,0.1,0.1,0.1
		c0.1,0.1,0.1,0.1,0.2,0.2c1.6,1.7,3.9,2.6,6.1,2.6c4.1,0,7.6-3.1,7.6-7.3C154.2,33,151.7,31.4,149.1,30.3z"/>
	<path class="st0" d="M2.9,2.2c-1.2,0-2.1,0.9-2.1,2.1V41c0,1.2,1,2.1,2.1,2.1c1.2,0,2.1-1,2.1-2.1V4.3C5,3.1,4.1,2.2,2.9,2.2z"/>
	<path class="st0" d="M99.7,2.2c-1.2,0-2.1,0.9-2.1,2.1V41c0,1.2,0.9,2.1,2.1,2.1c1.2,0,2.1-1,2.1-2.1V4.3
		C101.8,3.1,100.9,2.2,99.7,2.2z"/>
	<path class="st0" d="M20,9c-0.7,0-1.2,0.3-1.6,0.8l0,0L14.5,15l-0.2,0.2c-0.1,0.2-0.2,0.4-0.2,0.7c0,0.7,0.6,1.3,1.3,1.3
		c0.3,0,0.6-0.1,0.9-0.3l0.1-0.1l4.8-4.4l0,0c0.4-0.4,0.7-0.9,0.7-1.5C21.9,9.9,21.1,9,20,9z"/>
	<path class="st0" d="M17,21c-1.2,0-2.1,0.9-2.1,2.1v0v0V41v0v0c0,1.2,1,2.1,2.1,2.1c0.2,0,0.4,0,0.6-0.1c0.9-0.3,1.5-1.1,1.5-2
		V23.3l0,0c0,0,0-0.1,0-0.1C19.2,22,18.2,21,17,21z"/>
	<path class="st0" d="M52.5,20.4c-2.8,0-5.4,1.6-6.8,3.9c-1.4-2.5-3.5-3.9-6.4-3.9c-2.4,0-4.6,1.5-5.8,3.4h-0.1v-0.7v0v0
		c0-1.1-0.9-2.1-2.1-2.1c0,0,0,0-0.1,0c0,0,0,0-0.1,0c-1.1,0-2.1,1-2.1,2.1V41c0,1.2,1,2.1,2.1,2.1c1.2,0,2.1-0.9,2.1-2.1v0v0v-8.7
		c0-3.4,0.4-8.1,4.9-8.1c3.9,0,4.1,4.4,4.1,7.3V41l0,0l0,0c0,1.2,1,2.1,2.1,2.1c1.2,0,2.1-0.9,2.1-2.1v0v0v-8.7
		c0-3.4,0.3-8.1,4.9-8.1c3.7,0,4.1,3.6,4.1,6.5V41c0,0,0,0,0,0c0,0,0,0,0,0c0,1.2,1,2.1,2.1,2.1c1.2,0,2.1-1,2.1-2.1V29.9
		C59.8,24.9,58.3,20.4,52.5,20.4z"/>
	<path class="st0" d="M85.6,21c-1.2,0-2.1,0.9-2.1,2.1v0v0v10.1c0,3.5-0.9,6.6-5.1,6.6c-4.2,0-5.1-3.1-5.1-6.6V23.1c0,0,0,0,0,0
		c0,0,0,0,0,0c0-1.2-1-2.1-2.1-2.1c-1.2,0-2.1,0.9-2.1,2.1v10.6c0,6,2.8,10.1,9.3,10.1c6.5,0,9.3-4.1,9.3-10.1V23.1
		C87.8,22,86.8,21,85.6,21z"/>
	<path class="st0" d="M128.2,21c-1.2,0-2.1,0.9-2.1,2.1v0v0v10.1c0,3.5-0.9,6.6-5.1,6.6c-4.2,0-5.1-3.1-5.1-6.6V23.1c0,0,0,0,0,0
		c0,0,0,0,0,0c0-1.2-1-2.1-2.1-2.1c-1.2,0-2.1,0.9-2.1,2.1v10.6c0,6,2.8,10.1,9.3,10.1c6.5,0,9.3-4.1,9.3-10.1V23.1
		C130.3,22,129.4,21,128.2,21z"/>
</g>
</svg>
